<?xml version="1.0" encoding="utf-8"?>
<!-- Generator: Adobe Illustrator 28.4.1, SVG Export Plug-In . SVG Version: 6.00 Build 0)  -->
<svg version="1.1" id="Capa_1" xmlns="http://www.w3.org/2000/svg" xmlns:xlink="http://www.w3.org/1999/xlink" x="0px" y="0px"
	 viewBox="0 0 14 14" style="enable-background:new 0 0 14 14;" xml:space="preserve">
<path d="M12.82,13.99c-1.61-0.13-3.16-0.56-4.64-1.28C6.69,12,5.34,11.04,4.14,9.83C2.94,8.62,1.98,7.27,1.28,5.8
	c-0.7-1.48-1.13-3.02-1.28-4.64c-0.03-0.31,0.06-0.58,0.27-0.82C0.49,0.12,0.75,0,1.07,0h2.31c0.27,0,0.5,0.08,0.69,0.24
	C4.27,0.4,4.4,0.61,4.48,0.87l0.46,1.86c0.04,0.2,0.02,0.39-0.03,0.58C4.85,3.5,4.76,3.65,4.63,3.77L2.58,5.76
	c0.33,0.62,0.69,1.2,1.1,1.75c0.4,0.55,0.84,1.06,1.32,1.53c0.47,0.47,0.98,0.91,1.53,1.31c0.55,0.4,1.14,0.77,1.77,1.1l2.1-2.05
	c0.12-0.13,0.27-0.22,0.43-0.26c0.16-0.04,0.34-0.05,0.54-0.02l1.77,0.39c0.27,0.07,0.48,0.21,0.64,0.41
	c0.16,0.2,0.23,0.44,0.23,0.71v2.3c0,0.32-0.12,0.58-0.36,0.79C13.41,13.93,13.13,14.02,12.82,13.99z M2.06,4.64l1.67-1.6
	c0.03-0.02,0.05-0.05,0.06-0.09s0.01-0.08,0-0.11L3.39,1.29c-0.01-0.05-0.03-0.08-0.06-0.1C3.31,1.16,3.27,1.15,3.22,1.15H1.31
	c-0.03,0-0.06,0.01-0.09,0.03C1.2,1.21,1.19,1.24,1.19,1.27c0.05,0.56,0.14,1.12,0.3,1.68C1.64,3.51,1.83,4.07,2.06,4.64z
	 M9.46,11.99c0.53,0.23,1.08,0.41,1.66,0.53c0.58,0.12,1.11,0.21,1.61,0.27c0.03,0,0.06-0.01,0.09-0.03
	c0.02-0.02,0.03-0.05,0.03-0.09v-1.91c0-0.05-0.01-0.08-0.03-0.11c-0.02-0.03-0.06-0.05-0.1-0.06l-1.44-0.31
	c-0.03-0.01-0.06-0.01-0.09,0s-0.05,0.03-0.08,0.06C11.1,10.33,9.46,11.99,9.46,11.99z"/>
</svg>
