<?xml version="1.0" encoding="utf-8"?>
<!-- Generator: Adobe Illustrator 28.4.1, SVG Export Plug-In . SVG Version: 6.00 Build 0)  -->
<svg version="1.1" id="Capa_1" xmlns="http://www.w3.org/2000/svg" xmlns:xlink="http://www.w3.org/1999/xlink" x="0px" y="0px"
	 viewBox="0 0 306 50" style="enable-background:new 0 0 306 50;" xml:space="preserve">
<style type="text/css">
	.st0{clip-path:url(#SVGID_00000068647987503368212590000004645731275522536863_);}
	.st1{fill:#0F9ABE;}
	.st2{fill:#234F7C;}
	.st3{clip-path:url(#SVGID_00000109011080581008955850000001459940826517756591_);}
	.st4{fill:#1E243F;}
	.st5{fill:#FF8215;}
	.st6{clip-path:url(#SVGID_00000065758317583808282570000012804710487815261095_);}
	.st7{fill:#FFBA06;}
	.st8{clip-path:url(#SVGID_00000176043335038590835710000013942333363961997974_);}
	.st9{fill:#FF6825;}
	.st10{clip-path:url(#SVGID_00000155124781855140946620000007536086057688149176_);}
	.st11{fill:#1F2540;}
</style>
<g>
	<g>
		<g>
			<g>
				<g>
					<defs>
						<rect id="SVGID_1_" y="16.86" width="24" height="16.77"/>
					</defs>
					<clipPath id="SVGID_00000158724336948588568810000010620431965923264391_">
						<use xlink:href="#SVGID_1_"  style="overflow:visible;"/>
					</clipPath>
					<g style="clip-path:url(#SVGID_00000158724336948588568810000010620431965923264391_);">
						<path class="st1" d="M24,17.17v16.12L1.25,24.77l-1.21-5.66c-0.22-1.01,0.57-1.95,1.61-1.95L24,17.17L24,17.17z"/>
					</g>
				</g>
			</g>
		</g>
		<path class="st2" d="M24,33.29v4.43L6.4,48.52c-0.1-0.19-0.17-0.39-0.21-0.6L1.25,24.77L24,33.29z"/>
		<g>
			<g>
				<g>
					<defs>
						<rect id="SVGID_00000115516891784458539370000016023451292546549907_" x="6.08" y="37.41" width="17.92" height="12.59"/>
					</defs>
					<clipPath id="SVGID_00000147194296567326767270000010178452091935271603_">
						<use xlink:href="#SVGID_00000115516891784458539370000016023451292546549907_"  style="overflow:visible;"/>
					</clipPath>
					<g style="clip-path:url(#SVGID_00000147194296567326767270000010178452091935271603_);">
						<path class="st4" d="M24,37.73V50H8.79c-1.04,0-1.96-0.59-2.39-1.48L24,37.73z"/>
					</g>
				</g>
			</g>
		</g>
		<path class="st5" d="M46.67,25.54l-4.5,22.35c-0.05,0.24-0.13,0.48-0.25,0.69l-16.55-11.7L24,35.93v-0.52L46.67,25.54z"/>
		<g>
			<g>
				<g>
					<defs>
						<rect id="SVGID_00000121270551928608884010000004967071601501229445_" x="24" y="16.86" width="24" height="18.87"/>
					</defs>
					<clipPath id="SVGID_00000034063733125670719530000008235871057587857557_">
						<use xlink:href="#SVGID_00000121270551928608884010000004967071601501229445_"  style="overflow:visible;"/>
					</clipPath>
					<g style="clip-path:url(#SVGID_00000034063733125670719530000008235871057587857557_);">
						<path class="st7" d="M47.96,19.1l-1.3,6.45L24,35.41V17.17h22.35C47.38,17.17,48.17,18.1,47.96,19.1z"/>
					</g>
				</g>
			</g>
		</g>
		<g>
			<g>
				<g>
					<defs>
						<rect id="SVGID_00000092452800496430160930000014043095417525307052_" x="24" y="35.73" width="18.35" height="14.27"/>
					</defs>
					<clipPath id="SVGID_00000038397326002991439960000002121087594366307221_">
						<use xlink:href="#SVGID_00000092452800496430160930000014043095417525307052_"  style="overflow:visible;"/>
					</clipPath>
					<g style="clip-path:url(#SVGID_00000038397326002991439960000002121087594366307221_);">
						<path class="st9" d="M41.92,48.59C41.48,49.44,40.58,50,39.56,50H24V35.92l1.37,0.96L41.92,48.59z"/>
					</g>
				</g>
			</g>
		</g>
		<g>
			<g>
				<g>
					<defs>
						<rect id="SVGID_00000036957104605405093820000012220407988460721332_" x="9.07" y="0" width="29.87" height="23.99"/>
					</defs>
					<clipPath id="SVGID_00000178902334931111393720000004317031203212798902_">
						<use xlink:href="#SVGID_00000036957104605405093820000012220407988460721332_"  style="overflow:visible;"/>
					</clipPath>
					<g style="clip-path:url(#SVGID_00000178902334931111393720000004317031203212798902_);">
						<path class="st11" d="M36.2,23.61c-1.32,0-2.39-1.05-2.39-2.35v-6.92c0-5.32-4.4-9.64-9.81-9.64s-9.81,4.32-9.81,9.64v6.92
							c0,1.29-1.07,2.35-2.39,2.35s-2.38-1.06-2.38-2.36v-6.92C9.42,6.43,15.96,0,24,0s14.59,6.43,14.59,14.34v6.92
							C38.59,22.56,37.52,23.61,36.2,23.61z"/>
					</g>
				</g>
			</g>
		</g>
	</g>
	<g>
		<g>
			<g>
				<g transform="translate(204.107525, 265.512363)">
					<g>
						<path class="st11" d="M-1.82-218.52l-0.08-13.83l-6.45,11.26h-3.15l-6.4-10.89v13.45h-6.56v-26.07h5.85l8.8,15.05l8.61-15.05
							h5.84l0.08,26.07L-1.82-218.52L-1.82-218.52z"/>
					</g>
				</g>
			</g>
			<g>
				<g transform="translate(237.747382, 265.512363)">
					<g>
						<path class="st11" d="M-17.91-239.6c3.22,0,5.67,0.76,7.37,2.29c1.7,1.53,2.55,3.87,2.55,7.03v11.21h-6.35v-2.6
							c-0.98,1.96-2.88,2.94-5.74,2.94c-1.5,0-2.8-0.28-3.91-0.82c-1.1-0.55-1.94-1.28-2.51-2.22c-0.56-0.94-0.84-2-0.84-3.19
							c0-1.9,0.7-3.39,2.12-4.44c1.41-1.07,3.58-1.59,6.52-1.59h3.87c-0.12-2.14-1.5-3.21-4.12-3.21c-0.94,0-1.87,0.15-2.83,0.46
							s-1.76,0.74-2.43,1.28l-2.29-4.8c1.08-0.74,2.38-1.32,3.92-1.73C-21.02-239.39-19.47-239.6-17.91-239.6z M-18.17-223.2
							c0.79,0,1.47-0.19,2.07-0.59c0.59-0.4,1.03-0.99,1.29-1.76v-1.75h-2.94c-1.99,0-2.98,0.69-2.98,2.06
							c0,0.62,0.23,1.12,0.67,1.49C-19.59-223.39-18.96-223.2-18.17-223.2z"/>
					</g>
				</g>
			</g>
			<g>
				<g transform="translate(259.133926, 265.512363)">
					<g>
						<path class="st11" d="M-21.26-236.3c0.69-0.91,1.59-1.6,2.71-2.06c1.11-0.46,2.38-0.7,3.81-0.7v6.38
							c-0.61-0.09-1.13-0.13-1.54-0.13c-1.46,0-2.6,0.41-3.42,1.24c-0.83,0.82-1.24,2.07-1.24,3.77v9.28h-6.81v-20.19h6.48v2.41
							H-21.26z"/>
					</g>
				</g>
			</g>
			<g>
				<g transform="translate(273.566905, 265.512363)">
					<g>
						<path class="st11" d="M-18.72-225.6l-2.01,2.12v4.95h-6.81v-27.63h6.81v14.49l6.95-7.05h8.06l-8.06,8.64l8.75,11.55h-8.25
							L-18.72-225.6z"/>
					</g>
				</g>
			</g>
			<g>
				<g transform="translate(297.133484, 265.512363)">
					<g>
						<path class="st11" d="M-8.2-228.93c0,0.05-0.04,0.63-0.12,1.75h-14.11c0.28,1.05,0.83,1.86,1.66,2.41
							c0.82,0.56,1.86,0.84,3.11,0.84c0.93,0,1.72-0.13,2.4-0.4c0.69-0.28,1.38-0.73,2.07-1.35l3.59,3.87
							c-1.88,2.2-4.65,3.28-8.29,3.28c-2.26,0-4.26-0.45-5.99-1.35c-1.72-0.89-3.05-2.14-3.99-3.73c-0.95-1.58-1.42-3.38-1.42-5.39
							c0-1.99,0.45-3.77,1.37-5.34c0.93-1.58,2.2-2.82,3.81-3.71c1.62-0.89,3.47-1.35,5.5-1.35c1.94,0,3.69,0.42,5.26,1.26
							c1.58,0.83,2.83,2.02,3.76,3.6C-8.67-232.95-8.2-231.09-8.2-228.93z M-18.58-234.36c-1.05,0-1.94,0.31-2.64,0.93
							c-0.7,0.62-1.14,1.46-1.35,2.54h7.95c-0.19-1.08-0.63-1.92-1.35-2.54C-16.65-234.05-17.52-234.36-18.58-234.36z"/>
					</g>
				</g>
			</g>
			<g>
				<g transform="translate(319.04624, 265.512363)">
					<g>
						<path class="st11" d="M-13.05-219.69c-0.58,0.38-1.28,0.66-2.1,0.85c-0.83,0.2-1.71,0.31-2.64,0.31
							c-2.53,0-4.48-0.65-5.84-1.94c-1.37-1.3-2.04-3.23-2.04-5.78v-6.78h-2.83v-5.29h2.83v-5.25h6.81v5.25h4.44v5.29h-4.44v6.7
							c0,0.72,0.18,1.29,0.55,1.7c0.37,0.4,0.86,0.6,1.49,0.6c0.79,0,1.47-0.2,2.09-0.63L-13.05-219.69z"/>
					</g>
				</g>
			</g>
		</g>
		<g>
			<g>
				<g transform="translate(77.075171, 265.512363)">
					<g>
						<path class="st9" d="M5.31-244.6v26.07h-5.84l-11.08-13.89v13.89h-6.95v-26.07h5.85l11.07,13.89v-13.89H5.31z"/>
					</g>
				</g>
			</g>
			<g>
				<g transform="translate(105.152175, 265.512363)">
					<g>
						<path class="st9" d="M-0.06-228.93c0,0.05-0.04,0.63-0.12,1.75h-14.11c0.28,1.05,0.83,1.86,1.66,2.41
							c0.82,0.56,1.86,0.84,3.11,0.84c0.93,0,1.72-0.13,2.4-0.4c0.69-0.28,1.38-0.73,2.07-1.35l3.59,3.87
							c-1.88,2.2-4.65,3.28-8.29,3.28c-2.26,0-4.26-0.45-5.99-1.35c-1.72-0.89-3.05-2.14-3.99-3.73c-0.95-1.58-1.42-3.38-1.42-5.39
							c0-1.99,0.45-3.77,1.37-5.34c0.93-1.58,2.2-2.82,3.81-3.71c1.62-0.89,3.47-1.35,5.5-1.35c1.94,0,3.69,0.42,5.26,1.26
							c1.58,0.83,2.83,2.02,3.76,3.6C-0.53-232.95-0.06-231.09-0.06-228.93z M-10.43-234.36c-1.05,0-1.94,0.31-2.64,0.93
							c-0.7,0.62-1.14,1.46-1.35,2.54h7.95c-0.19-1.08-0.63-1.92-1.35-2.54C-8.5-234.05-9.38-234.36-10.43-234.36z"/>
					</g>
				</g>
			</g>
			<g>
				<g transform="translate(127.064934, 265.512363)">
					<g>
						<path class="st9" d="M-8.12-239.4c1.76,0,3.37,0.43,4.81,1.27c1.45,0.85,2.59,2.06,3.44,3.64c0.85,1.57,1.28,3.4,1.28,5.5
							c0,2.09-0.43,3.93-1.28,5.51c-0.85,1.59-1.99,2.82-3.44,3.67c-1.44,0.86-3.05,1.28-4.81,1.28c-2.55,0-4.47-0.79-5.74-2.36
							v2.01h-6.48v-27.63h6.81v9.2C-12.22-238.7-10.43-239.4-8.12-239.4z M-9.55-224.16c1.19,0,2.16-0.43,2.94-1.28
							c0.76-0.85,1.15-2.03,1.15-3.54c0-1.5-0.39-2.66-1.15-3.5c-0.76-0.84-1.74-1.27-2.94-1.27s-2.17,0.43-2.94,1.27
							c-0.76,0.84-1.15,2-1.15,3.5c0,1.51,0.38,2.69,1.15,3.54C-11.73-224.59-10.75-224.16-9.55-224.16z"/>
					</g>
				</g>
			</g>
			<g>
				<g transform="translate(150.969803, 265.512363)">
					<g>
						<path class="st9" d="M-0.38-239.06v20.19h-6.48v-2.16c-0.71,0.83-1.58,1.45-2.59,1.87c-1,0.42-2.07,0.63-3.19,0.63
							c-2.51,0-4.51-0.76-6-2.3c-1.49-1.55-2.24-3.86-2.24-6.94v-11.29h6.81v10.13c0,1.52,0.27,2.63,0.82,3.33
							c0.56,0.69,1.36,1.03,2.41,1.03c1.08,0,1.95-0.39,2.63-1.17c0.69-0.79,1.03-1.98,1.03-3.59v-9.73L-0.38-239.06L-0.38-239.06z"
							/>
					</g>
				</g>
			</g>
			<g>
				<g transform="translate(174.761903, 265.512363)">
					<g>
						<path class="st9" d="M-13.72-225.6l-2.01,2.12v4.95h-6.81v-27.63h6.81v14.49l6.95-7.05h8.06l-8.06,8.64l8.75,11.55h-8.25
							L-13.72-225.6z"/>
					</g>
				</g>
			</g>
		</g>
	</g>
</g>
</svg>
