<?xml version="1.0" encoding="utf-8"?>
<!-- Generator: Adobe Illustrator 28.4.1, SVG Export Plug-In . SVG Version: 6.00 Build 0)  -->
<svg version="1.1" id="Capa_1" xmlns="http://www.w3.org/2000/svg" xmlns:xlink="http://www.w3.org/1999/xlink" x="0px" y="0px"
	 viewBox="0 0 256 256" style="enable-background:new 0 0 256 256;" xml:space="preserve">
<style type="text/css">
	.st0{clip-path:url(#SVGID_00000120556786901640759620000010559636655035442362_);}
	.st1{fill:#0F9ABE;}
	.st2{fill:#234F7C;}
	.st3{clip-path:url(#SVGID_00000075861774586630940260000002453476426156160412_);}
	.st4{fill:#1E243F;}
	.st5{fill:#FF8215;}
	.st6{clip-path:url(#SVGID_00000096033941345301946380000000927106664996731277_);}
	.st7{fill:#FFBA06;}
	.st8{clip-path:url(#SVGID_00000007425507446146441050000017264358925073863816_);}
	.st9{fill:#FF6825;}
	.st10{clip-path:url(#SVGID_00000004505069007486810800000004158892633141032638_);}
	.st11{fill:#1F2540;}
	.st12{fill:none;}
</style>
<g>
	<g>
		<g>
			<g>
				<g>
					<g>
						<g>
							<g>
								<g>
									<defs>
										<rect id="SVGID_1_" x="29.56" y="85.88" width="98.44" height="70.48"/>
									</defs>
									<clipPath id="SVGID_00000163060336967895116300000003936070283702883502_">
										<use xlink:href="#SVGID_1_"  style="overflow:visible;"/>
									</clipPath>
									<g style="clip-path:url(#SVGID_00000163060336967895116300000003936070283702883502_);">
										<path class="st1" d="M128,87.06v67.73l-93.32-35.7l-4.99-23.76c-0.92-4.33,2.43-8.27,6.69-8.27H128L128,87.06z"/>
									</g>
								</g>
							</g>
						</g>
					</g>
				</g>
			</g>
			<path class="st2" d="M128,154.78v18.64l-72.19,45.41c-0.39-0.79-0.66-1.58-0.92-2.49l-20.21-97.26L128,154.78z"/>
			<g>
				<g>
					<g>
						<g>
							<g>
								<g>
									<defs>
										
											<rect id="SVGID_00000171688814652943299440000002998259008253463982_" x="54.57" y="172.11" width="73.43" height="52.89"/>
									</defs>
									<clipPath id="SVGID_00000167384102295807670870000001173089952332099755_">
										<use xlink:href="#SVGID_00000171688814652943299440000002998259008253463982_"  style="overflow:visible;"/>
									</clipPath>
									<g style="clip-path:url(#SVGID_00000167384102295807670870000001173089952332099755_);">
										<path class="st4" d="M128,173.42V225H65.59c-4.27,0-8.07-2.49-9.78-6.17L128,173.42z"/>
									</g>
								</g>
							</g>
						</g>
					</g>
				</g>
			</g>
			<path class="st5" d="M220.93,122.23l-18.44,93.84c-0.26,1.05-0.52,1.97-1.05,2.89l-67.92-49.09l-5.51-3.94v-2.23L220.93,122.23z"
				/>
			<g>
				<g>
					<g>
						<g>
							<g>
								<g>
									<defs>
										<rect id="SVGID_00000183952003306371203370000002004859955444077962_" x="128" y="85.88" width="98.44" height="79.28"/>
									</defs>
									<clipPath id="SVGID_00000105425474346559298030000001946840869230285740_">
										<use xlink:href="#SVGID_00000183952003306371203370000002004859955444077962_"  style="overflow:visible;"/>
									</clipPath>
									<g style="clip-path:url(#SVGID_00000105425474346559298030000001946840869230285740_);">
										<path class="st7" d="M226.31,95.19l-5.38,27.04L128,163.71V87.06h91.61C223.88,87.06,227.09,90.99,226.31,95.19z"/>
									</g>
								</g>
							</g>
						</g>
					</g>
				</g>
			</g>
			<g>
				<g>
					<g>
						<g>
							<g>
								<g>
									<defs>
										<rect id="SVGID_00000074435085324615223000000011281563835888511415_" x="128" y="165.02" width="75.21" height="59.98"/>
									</defs>
									<clipPath id="SVGID_00000071553228594155962480000014181897152160045225_">
										<use xlink:href="#SVGID_00000074435085324615223000000011281563835888511415_"  style="overflow:visible;"/>
									</clipPath>
									<g style="clip-path:url(#SVGID_00000071553228594155962480000014181897152160045225_);">
										<path class="st9" d="M201.43,219.09c-1.77,3.54-5.38,5.91-9.58,5.91H128v-59.19l5.64,4.07L201.43,219.09z"/>
									</g>
								</g>
							</g>
						</g>
					</g>
				</g>
			</g>
			<g>
				<g>
					<g>
						<g>
							<g>
								<g>
									<defs>
										<rect id="SVGID_00000029020057026627250290000009918395509588382122_" x="66.71" y="15" width="122.52" height="100.8"/>
									</defs>
									<clipPath id="SVGID_00000178908020901043003460000009739874359499665811_">
										<use xlink:href="#SVGID_00000029020057026627250290000009918395509588382122_"  style="overflow:visible;"/>
									</clipPath>
									<g style="clip-path:url(#SVGID_00000178908020901043003460000009739874359499665811_);">
										<path class="st11" d="M178.01,114.22c-5.38,0-9.71-4.46-9.71-9.84V75.24c0-22.31-18.05-40.42-40.23-40.42
											S87.77,52.93,87.77,75.24v29.01c0,5.38-4.33,9.84-9.71,9.84s-9.84-4.33-9.84-9.84V75.24C68.15,42.04,95.06,15,128,15
											s59.85,27.04,59.85,60.24v29.01C187.85,109.76,183.52,114.22,178.01,114.22z"/>
									</g>
								</g>
							</g>
						</g>
					</g>
				</g>
			</g>
		</g>
		<rect x="23" y="15" class="st12" width="210" height="210"/>
	</g>
	<circle class="st12" cx="128" cy="128" r="128"/>
</g>
</svg>
